<svg width="61" height="28" viewBox="0 0 61 28" fill="none" xmlns="http://www.w3.org/2000/svg">
<path d="M4.86401 28H0.880005V0.975998H11.44C14.416 0.975998 16.72 1.712 18.352 3.184C19.984 4.656 20.8 6.864 20.8 9.808C20.8 12.464 19.952 14.528 18.256 16C16.592 17.472 14.32 18.208 11.44 18.208H4.86401V28ZM10.96 4.288H4.86401V15.184H10.96C12.88 15.184 14.384 14.736 15.472 13.84C16.592 12.944 17.152 11.584 17.152 9.76C17.152 7.872 16.608 6.496 15.52 5.632C14.432 4.736 12.912 4.288 10.96 4.288Z" fill="white"/>
<path d="M22.9188 28V10.368H26.6148L26.9508 15.696C27.1428 14.832 27.5108 14 28.0548 13.2C28.6308 12.368 29.4148 11.696 30.4068 11.184C31.4308 10.64 32.7268 10.368 34.2948 10.368H35.1108V14.784H34.2468C32.2948 14.784 30.7908 15.04 29.7348 15.552C28.6788 16.032 27.9428 16.752 27.5268 17.712C27.1108 18.64 26.9028 19.792 26.9028 21.168V28H22.9188Z" fill="white"/>
<path d="M37.4378 28V0.975998H41.4218V14.368L54.5258 0.975998H59.7098V1.504L48.6218 12.112L60.2858 27.472V28H55.6778L45.6938 14.848L41.4218 18.976V28H37.4378Z" fill="white"/>
</svg>
